# xmcd
#
# Track frame offsets:
#	150
#	7373
#	15943
#	21166
#	28862
#	39837
#	49603
#	56008
#	63804
#	73651
#	85930
#	93378
#	103412
#	110758
#	122225
#	129011
#	133829
#	142629
#
# Disc length: 2034 seconds
#
# Revision: 0
# Processed by: cddbd v1.5.2PL0 Copyright (c) Steve Scherf et al.
# Submitted via: EasyCDDAExtractor 16.0.9.1
#
DISCID=f107f012
DTITLE=이오덕 동요제 - 복숭아 한번 실컷 먹고 싶다
DYEAR=1900
DGENRE=
TTITLE0=냉이꽃
TTITLE1=달개비꽃
TTITLE2=달팽이
TTITLE3=똥
TTITLE4=복숭아 한번 실컷 먹고 싶다
TTITLE5=시간은 참 얄밉다
TTITLE6=엄마는 잔소리가 너무 심해
TTITLE7=여덟 살의 꿈
TTITLE8=인사
TTITLE9=청호동 고양이
TTITLE10=풀린 개
TTITLE11=할머니, 할아버지
TTITLE12=할무이
TTITLE13=내 길을 갈 거야
TTITLE14=개들은
TTITLE15=이 지구에
TTITLE16=우리는 촌에서 마로 사노
TTITLE17=우리 말 노래
EXTD=
EXTT0=
EXTT1=
EXTT2=
EXTT3=
EXTT4=
EXTT5=
EXTT6=
EXTT7=
EXTT8=
EXTT9=
EXTT10=
EXTT11=
EXTT12=
EXTT13=
EXTT14=
EXTT15=
EXTT16=
EXTT17=
PLAYORDER=
